<?xml version="1.0" encoding="utf-8"?>
<!-- Generator: Adobe Illustrator 25.2.3, SVG Export Plug-In . SVG Version: 6.00 Build 0)  -->
<svg version="1.1" id="Layer_1" xmlns="http://www.w3.org/2000/svg" xmlns:xlink="http://www.w3.org/1999/xlink" x="0px" y="0px"
	 viewBox="0 0 45 50" style="enable-background:new 0 0 45 50;" xml:space="preserve">
<style type="text/css">
	.st0{fill:url(#SVGID_1_);}
	.st1{opacity:0.2;}
	.st2{fill:#FFFFFF;}
	.st3{opacity:0.3;}
</style>
<linearGradient id="SVGID_1_" gradientUnits="userSpaceOnUse" x1="39.6449" y1="1064.4199" x2="5.3532" y2="1030.1183" gradientTransform="matrix(1 0 0 1 0 -1028)">
	<stop  offset="0" style="stop-color:#00A1B0"/>
	<stop  offset="0.14" style="stop-color:#376397"/>
	<stop  offset="0.36" style="stop-color:#6A2A7D"/>
	<stop  offset="0.76" style="stop-color:#E73D5D"/>
	<stop  offset="1" style="stop-color:#F07E3F"/>
</linearGradient>
<path class="st0" d="M45,7.5C45,43.6,22.5,50,22.5,50S0,43.6,0,7.5C10.3-2.5,34.7-2.5,45,7.5z"/>
<g class="st1">
	<path class="st2" d="M22.5,0v1.5l0,0c8.6,0,16.3,2.5,21,6.6c-0.1,14-3.8,25.4-10.7,33c-2.8,3.2-6.3,5.7-10.2,7.3
		c-3.9-1.6-7.3-4-10.1-7.1C3.6,31.7,1.6,18.1,1.5,8.1C6.2,4,13.9,1.5,22.5,1.5L22.5,0 M22.5,0C13.8,0,5.2,2.5,0,7.5
		C0,43.6,22.5,50,22.5,50S45,43.6,45,7.5C39.8,2.5,31.2,0,22.5,0z"/>
</g>
<g>
	<g class="st3">
		<path d="M11.1,29.1c0-6.2,8.8-5.7,8.8-9.6c0-1.3-0.9-2.3-2.5-2.3c-2.4,0-2.8,2.3-2.9,2.6L11,19.1c0-2.1,1.7-5.5,6.5-5.5
			c4,0,6.5,2.4,6.5,5.8c0,5.2-8.2,6.6-8.2,8.5v0.4h8.1v3.3H11.1V29.1z"/>
		<path d="M30.6,19.2c-0.6,1.2-2.3,2.4-4.3,2.4l-0.5-3.7c2.1,0,4.6-1.9,4.8-4.1h4.1v17.8h-4.1V19.2z"/>
	</g>
	<g>
		<path class="st2" d="M9.9,27.9c0-6.2,8.8-5.7,8.8-9.6c0-1.3-0.9-2.3-2.5-2.3c-2.4,0-2.8,2.3-2.9,2.6l-3.5-0.8
			c0-2.1,1.7-5.5,6.5-5.5c4,0,6.5,2.4,6.5,5.8c0,5.2-8.2,6.6-8.2,8.5V27h8.1v3.3H9.9V27.9z"/>
		<path class="st2" d="M29.4,17.9c-0.6,1.2-2.3,2.4-4.3,2.4l-0.5-3.7c2.1,0,4.6-1.9,4.8-4.1h4.1v17.8h-4.1V17.9z"/>
	</g>
</g>
</svg>
